<?xml version="1.0" encoding="UTF-8" standalone="no"?>
<!-- Generator: Adobe Illustrator 21.0.2, SVG Export Plug-In . SVG Version: 6.00 Build 0)  -->

<svg
   xmlns:dc="http://purl.org/dc/elements/1.1/"
   xmlns:cc="http://creativecommons.org/ns#"
   xmlns:rdf="http://www.w3.org/1999/02/22-rdf-syntax-ns#"
   xmlns:svg="http://www.w3.org/2000/svg"
   xmlns="http://www.w3.org/2000/svg"
   xmlns:sodipodi="http://sodipodi.sourceforge.net/DTD/sodipodi-0.dtd"
   xmlns:inkscape="http://www.inkscape.org/namespaces/inkscape"
   version="1.1"
   id="Layer_1"
   x="0px"
   y="0px"
   viewBox="0 0 400 400"
   style="enable-background:new 0 0 400 400;"
   xml:space="preserve"
   inkscape:version="0.91 r13725"
   sodipodi:docname="android_bug_icon_banner_for_store.svg"
   inkscape:export-filename="D:\DevSource\Tamu\GeoInnovation\Tamu.GeoInnovation.react.kissingbug.tamu.edu\react-native-assets\hi-res-store-icon.png"
   inkscape:export-xdpi="90"
   inkscape:export-ydpi="90"><metadata
   id="metadata3344"><rdf:RDF><cc:Work
       rdf:about=""><dc:format>image/svg+xml</dc:format><dc:type
         rdf:resource="http://purl.org/dc/dcmitype/StillImage" /><dc:title></dc:title></cc:Work></rdf:RDF></metadata><defs
   id="defs3342" /><sodipodi:namedview
   pagecolor="#ffffff"
   bordercolor="#666666"
   borderopacity="1"
   objecttolerance="10"
   gridtolerance="10"
   guidetolerance="10"
   inkscape:pageopacity="0"
   inkscape:pageshadow="2"
   inkscape:window-width="2048"
   inkscape:window-height="1099"
   id="namedview3340"
   showgrid="false"
   inkscape:zoom="1.6334167"
   inkscape:cx="191.77052"
   inkscape:cy="200.53794"
   inkscape:window-x="-8"
   inkscape:window-y="-8"
   inkscape:window-maximized="1"
   inkscape:current-layer="layer1" />
<style
   type="text/css"
   id="style3337">
	.st0{fill:#FFCC00;}
</style>

<g
   inkscape:groupmode="layer"
   id="layer2"
   inkscape:label="background"><rect
     style="opacity:1;fill:#ffcc00;fill-opacity:1;stroke:none;stroke-width:1.39787412;stroke-opacity:1"
     id="rect4165"
     width="512"
     height="512"
     x="-55.500023"
     y="-55.887779" /></g><rect
   style="fill:#f00000;fill-opacity:0;stroke:none;stroke-opacity:1"
   id="rect4146"
   width="399.77551"
   height="399.77551"
   x="0"
   y="0.83669162" /><g
   inkscape:groupmode="layer"
   id="layer1"
   inkscape:label="Bug"
   style="display:inline"><path
     id="kissing_bug"
     class="st0"
     d="m 204.00244,51.029511 c 0.92492,-3.185856 2.05539,-6.268947 2.87755,-9.454806 0.41107,-1.336006 0.92492,-2.672011 1.54155,-3.596938 0.92492,-1.130467 2.26092,-1.747084 3.59694,-1.541545 1.74707,0.20554 2.87754,2.260933 3.59692,3.802477 1.54155,3.802478 2.46648,8.118805 2.46648,12.126816 5.65233,-12.537895 12.33235,-24.870254 19.52623,-36.791534 4.72741,-7.6049549 10.99636,-13.6683649 19.01239,-17.2653029 7.39942,-3.596938 15.9293,-3.185859 23.94534,-2.466471 7.39941,0.411077 14.79883,0.924926 21.9927,3.18585804 C 309.54687,1.2889981 315.81582,5.2970151 319.6183,11.565964 308.41641,7.7634871 298.34498,2.8305431 286.4237,0.98069014 c -5.13848,-0.719388 -10.07143,-1.130467 -15.2099,-0.924928 -4.72742,0 -9.45482,-0.205539 -14.07945,0.924928 -5.34402,7.60495496 -10.79081,15.41544786 -16.13484,23.12317186 -2.67201,3.802478 -5.34401,7.604955 -8.1188,11.407433 -1.13046,1.541544 -2.46648,3.18586 -3.18585,4.932944 -0.7194,1.747083 -0.41109,3.802478 -1.13048,5.652331 -0.41107,1.747085 -2.05539,3.596937 -3.59694,4.52187 -0.92492,4.008011 -2.05538,8.324341 -2.87755,12.332353 -0.41107,1.747087 -0.92492,3.802481 -0.20553,5.652334 0.71938,1.541545 2.46647,2.055394 3.3914,3.391398 2.26092,2.877549 1.74708,7.399409 -0.71939,10.071432 -0.71939,0.92492 -1.54155,1.541546 -2.26094,2.466466 -2.05539,2.466478 0.41109,6.268947 -2.05539,8.940967 -0.92492,1.130462 -2.67201,1.747075 -2.87755,3.185856 -0.41107,1.541546 1.336,3.185856 3.18586,3.185856 1.54154,0 7.19388,-3.802469 5.85787,1.130478 -0.20554,0.92492 -0.92493,1.74707 -1.54154,2.46646 4.00801,2.87755 8.52988,7.39942 8.52988,12.74344 0,4.52187 2.46647,2.46648 4.00801,0.41108 1.74709,-2.672 4.21357,-4.93294 6.47449,-7.39942 4.52187,-4.52186 9.45482,-8.52988 14.79883,-12.12681 2.26094,-1.541546 4.52187,-2.877562 6.26895,-4.727414 4.72741,-5.138473 2.87756,-13.873902 2.67202,-20.14285 -0.20554,-7.810493 0,-15.723763 0.20554,-23.328714 0.20553,-7.193877 0.41107,-14.593293 1.54153,-21.787169 0.41109,-2.877551 0.71939,-4.727405 0,-7.604955 -0.20553,-0.924927 -2.46646,-9.1465 -2.05538,-9.454809 -1.54154,0 -3.18587,0.411079 -4.52187,0.719388 0.71939,-2.4664719 3.59694,-4.0080169 6.26895,-3.3913989 1.54154,-1.336005 4.00802,-2.055393 6.06341,-1.541544 -0.20554,1.541544 -2.05539,2.466471 -3.39139,2.055393 -1.13048,2.2609319 -0.71939,4.9329429 0.20553,7.1938759 0.92493,2.260932 2.46647,4.213555 3.39139,6.474488 2.26094,6.06341 1.54155,12.12682 1.13048,18.395769 -0.41108,7.193875 -0.92493,14.593296 -1.33601,21.787164 -0.20554,5.344027 -0.41108,10.996361 -0.71939,16.340376 0,2.672026 -0.20554,5.344031 -0.20554,8.324345 0,1.336016 0.41109,4.521872 -0.20554,5.857876 -3.80247,8.529879 -12.12681,14.079439 -19.32069,20.348389 -4.52187,3.80248 -8.32434,9.14651 -12.12682,13.87391 6.26894,5.13849 12.33236,12.94898 13.87391,21.06778 1.74707,8.73543 -1.33602,18.80685 -3.3914,27.33673 16.13483,-6.06341 32.68074,-10.27696 49.74051,-13.25729 3.59694,-0.71939 8.32434,-1.74707 9.86588,2.0554 1.74709,4.52187 2.67201,9.45481 3.59694,14.07944 2.0554,9.66036 3.59694,19.3207 4.52186,28.87828 0.41109,3.80247 0.92494,7.60495 1.13048,11.20189 0.20554,3.3914 0,7.60495 0.92492,10.79081 0.92493,2.87756 3.18587,2.67202 5.85787,3.59694 3.18586,1.13047 6.06341,2.26094 8.73543,4.00802 9.1465,6.26895 8.73541,17.2653 7.60495,27.13119 -3.3914,29.59766 -6.47449,59.19532 -13.87391,88.0736 -2.26092,8.52987 -4.7274,16.85423 -6.98833,25.28133 -0.92493,3.18586 -3.18586,8.52989 -2.46647,11.92129 0.71939,2.672 5.13848,5.13848 3.39139,8.32434 -0.92492,1.336 -2.87755,1.54154 -4.52186,0.71939 -1.336,-0.92493 -2.26093,-2.46648 -3.18586,-3.80248 -1.33601,1.336 -2.67201,2.672 -4.52186,2.672 -1.74709,0.20555 -3.80249,-1.54153 -2.87755,-3.39139 0.41107,-1.13047 1.74708,-1.33601 2.87755,-1.74708 4.21355,-2.05539 5.65233,-7.19388 6.26894,-11.92128 l 1.33601,-8.11881 c 3.3914,-19.52624 6.68003,-38.74416 10.07143,-58.27039 3.39139,-18.60132 7.19388,-37.20262 7.39942,-56.52332 0,-3.80248 -0.20554,-8.1188 -3.3914,-10.58528 -2.05539,-1.54154 -4.72741,-2.05539 -7.19388,-2.26092 -9.45482,-0.92493 -19.01238,-1.33602 -28.26166,-3.59694 -9.45481,-2.46648 -18.80685,-5.34403 -28.4672,-7.81049 1.33601,6.68002 3.3914,13.25728 4.21356,19.93731 1.13047,7.19387 1.54154,14.59329 1.54154,21.9927 0.20554,14.59329 -1.336,29.18659 -4.21355,43.26603 -0.71939,3.80248 -1.33601,7.39941 -3.3914,10.79082 -2.26094,3.59693 -4.00801,7.60495 -6.26895,11.20189 -4.52186,7.19387 -9.14649,14.07944 -14.59329,20.86224 -4.52187,5.65233 -9.1465,10.79082 -14.38776,15.72376 -2.26092,2.26093 -4.7274,5.13847 -7.3994,6.68002 -2.87755,1.54155 -5.34403,2.26094 -7.60497,5.13849 -2.26092,2.87754 -3.59693,6.26894 -5.34401,9.45481 -1.74709,3.18586 -4.52187,6.06341 -8.1188,6.68002 -3.3914,0.71939 -6.98834,-0.41107 -8.94097,-3.18586 -1.74709,-2.26093 -2.46647,-5.13848 -3.3914,-7.81049 -0.71939,-1.74709 -1.54154,-3.80248 -3.18585,-4.93294 -2.67201,-2.26094 -5.85788,-4.00801 -8.73543,-6.47449 -2.87755,-2.67201 -5.85786,-5.34403 -8.52988,-8.32434 -5.34402,-5.85788 -10.27696,-12.12683 -14.59329,-18.60132 -8.52988,-12.94897 -15.00437,-27.54226 -18.60131,-42.85494 -7.19387,-30.00874 -3.80247,-62.58672 9.45481,-90.33453 -13.66837,-3.80248 -26.72011,-8.1188 -40.79955,-9.86589 -3.18587,-0.41107 -6.47449,-1.13046 -9.660357,-1.13046 -3.185856,0.20554 -2.87755,2.26092 -4.008012,5.13848 l -6.680031,18.80685 c -1.541545,4.52186 -3.185856,8.73542 -4.727402,13.25728 -0.71939,2.05539 -1.541545,4.52187 -1.130462,6.47449 0.411072,2.26094 2.672008,4.21355 4.932944,3.59694 -2.055394,3.80248 -6.474489,6.26895 -10.790815,5.85786 1.130458,-18.39576 5.138481,-36.79153 11.921277,-54.05683 -2.877549,-0.41108 -6.063406,-0.92492 -8.735425,-1.33601 -4.521855,9.86589 -7.810488,20.14286 -10.071412,30.72813 -3.802482,17.2653 -4.521872,34.94168 -5.344028,52.72084 -0.71939,12.74344 -1.130462,25.58964 -1.747087,38.12753 -0.205542,5.34403 -0.205542,10.58528 -1.541546,15.72377 -0.411071,1.74708 -0.92492,4.52186 0,6.26894 0.719391,1.33601 3.391398,1.74709 2.87755,3.3914 -0.20553,1.33601 -2.87755,2.67202 -3.80247,3.18587 -2.055394,0.92492 -4.213565,1.13046 -6.268959,1.54153 -1.336004,0.20555 -2.672008,0.41109 -4.008012,-0.20553 -1.336004,-0.71939 -2.055394,-2.26093 -1.336004,-3.39139 0.719391,-0.92494 1.747088,-1.13048 2.672008,-0.92494 0.924932,0.20555 2.055394,0.20555 3.185868,-0.20554 2.260924,-0.92492 1.130462,-8.32434 1.130462,-10.27696 0,-12.33236 -0.205542,-24.66471 0,-36.79154 0.411072,-18.19023 1.541546,-36.586 4.52186,-54.67346 2.87755,-17.47084 8.324342,-34.11952 13.668369,-50.87098 0.205542,-1.13046 0.71939,-2.0554 1.541546,-2.87755 1.130462,-1.13046 2.877544,-1.13046 4.727397,-0.92492 1.130474,0 12.126823,2.26092 12.537894,0.71938 2.877562,-8.52987 4.008024,-19.52624 11.612977,-24.45918 7.60496,-4.93294 17.47085,-3.59694 26.20626,-2.05539 10.58528,1.74708 21.06778,2.67202 31.65306,4.52187 l 0,0.41107 c 1.13046,-2.87755 -1.54155,-8.52988 -2.26094,-11.40743 -0.92492,-4.00801 -1.54155,-8.1188 -1.54155,-12.33236 0,-4.93294 2.0554,-9.45481 4.93295,-13.46282 2.67202,-4.00803 5.13848,-7.39943 8.73542,-10.79083 -6.0634,-6.26894 -12.12682,-12.74343 -18.19023,-19.01238 -4.00801,-4.21355 -8.11879,-8.73543 -10.58527,-14.079442 -2.26093,-4.932944 -3.80247,-10.790819 -5.34402,-16.134832 -3.59694,-12.537913 -5.65233,-25.28135 -5.85787,-38.333094 -0.20555,-9.865887 0.41108,-20.142853 -3.80249,-28.878274 -0.20553,1.130466 -2.05538,1.336005 -2.672,0.20554 -0.71939,-0.924928 0,-2.466473 0.92493,-3.18586 0.92492,-0.7193879 2.26092,-0.9249279 3.3914,-0.9249279 2.87755,-0.205539 5.85786,-0.411078 8.73541,-0.924927 -0.20553,1.130467 -0.20553,2.2609339 -0.41107,3.3913989 -1.13046,0.411079 -1.74709,0.924928 -2.67201,0.20554 3.80247,25.281336 8.1188,51.076524 12.12681,76.255094 12.74344,8.529884 23.7398,20.142844 31.13921,33.811214 1.74709,-1.13046 3.59694,-2.67201 4.52187,-4.7274 1.54155,-2.67202 1.74708,-6.06342 3.3914,-8.73543 0.71939,-1.336 5.34401,-7.3994 6.98834,-7.19387 -1.74709,0 -3.18587,-1.747081 -3.18587,-3.391403 0,-1.747076 1.54154,-3.185856 3.3914,-3.185856 1.84986,0 3.39141,1.336003 3.39141,3.185856 0.92492,0 2.05538,-0.411072 2.672,-0.411072 -3.18585,-3.802482 -3.18585,-8.118812 -4.7274,-12.332365 -1.33601,-3.59694 -2.67202,-7.810497 -0.92493,-11.201895 1.336,-2.672007 4.52186,-4.52186 5.13849,-7.604951 0.41107,-2.466478 -1.13047,-4.727402 -2.0554,-6.988338 -0.92493,-2.260936 -0.41108,-6.268947 2.0554,-6.988337 -4.52188,-2.87755 -7.60495,-6.988338 -8.32435,-12.33236 -14.59328,-8.735422 -27.13119,-20.656702 -37.61369,-34.1195279 -4.21356,2.466472 -9.86589,1.336006 -14.79883,0.205539 -9.66035,-2.260932 -19.73178,-4.008016 -29.80321,-2.672011 -4.00801,0.411079 -8.529878,0.719388 -12.332348,2.260933 10.790808,-4.932944 22.609328,-7.193876 34.325058,-6.26894896 4.21356,0.411079 8.73542,1.130467 12.94898,2.05539296 3.80247,0.719388 7.19387,1.130467 10.79081,2.466472 16.54592,6.0634099 30.21429,18.1902299 39.66909,32.9890609 4.93294,2.260932 8.32434,7.604954 8.32434,12.948972 1.84985,0.71939 2.0554,0.205542 2.46648,0.71939 l 0,0 z m 50.87098,148.604939 c 4.93295,5.34402 8.73542,11.92128 10.99635,19.01239 1.74709,-0.20554 3.59694,0 5.65234,0.20554 2.05539,0.20554 4.00801,0.41107 6.0634,0.92492 12.94898,1.74709 25.79519,4.21356 38.33309,8.32434 -1.33601,-20.14285 -3.18586,-40.38847 -9.45482,-59.60639 -9.66034,4.93294 -19.73177,8.73541 -30.00873,11.20189 -7.19388,1.74708 -14.38776,3.18585 -21.78717,2.672 0.92492,5.85788 1.336,11.61298 0.20554,17.26531 l 0,0 z m 64.64212,43.88265 c 0.20554,2.05539 0.41107,4.00801 0.41107,6.0634 l 0,1.33601 c 0,0 -0.41107,0.92493 -1.13046,0.92493 -0.20554,-0.41108 -0.71939,-0.92493 -1.13047,-1.13046 -0.71939,1.13046 -1.33601,2.46646 -0.71939,3.39139 0.20555,0.71938 0.92492,1.13047 1.54155,1.13047 0.71939,0.20554 1.336,0.20554 2.05539,0.20554 1.74708,0 3.80247,0.41107 5.65233,0.20554 1.74708,-0.20554 3.80248,-1.33602 4.21356,-3.3914 0.20553,-0.71939 0,-1.74709 -0.71939,-2.05539 -0.92493,-0.20554 -1.74709,0.71938 -2.67201,0.41107 -0.41108,-0.20554 -0.92493,-0.71939 -1.13047,-0.92492 -1.13046,-1.74709 -1.54155,-4.00802 -1.336,-6.26896 -1.54155,0.82217 -3.28864,0.82217 -5.03571,0.10272 l 0,0 z M 162.58626,187.50763 c -5.65233,0.41108 -11.20189,-0.71939 -16.85422,-1.336 -11.61298,-1.54155 -23.73979,-0.92494 -35.14722,-4.52188 -4.21357,4.00803 -4.00802,11.61298 -8.52988,15.72377 2.87755,1.336 6.26894,1.54154 9.66034,1.54154 4.7274,0.20554 9.4548,1.13046 14.07944,2.26094 2.0554,0.41107 4.00802,0.92492 6.26895,1.54154 3.39141,0.92492 6.98834,1.54155 10.27697,2.46647 3.80248,0.92493 7.81049,2.05539 10.79082,4.52187 0.20553,-0.20554 0.20553,-0.41108 0.41107,-0.71939 4.31633,-6.68003 8.32434,-13.36006 9.04373,-21.47886 l 0,0 z m -22.60932,62.9978 c 2.87755,2.0554 6.47449,2.87755 9.86589,3.3914 2.672,0.41107 5.34402,0.41107 7.81049,0.41107 1.54154,0 2.05539,0.20555 2.46648,-1.13046 0.20553,-0.92492 0,-2.46646 0,-3.59694 0,-4.7274 0.20553,-9.14649 0.41107,-13.8739 0.20554,-2.46647 0.20554,-4.7274 0.41108,-7.19388 0,-1.13046 0.20554,-1.74708 -0.20554,-2.672 -0.41108,-0.71939 -2.46648,-1.33601 -3.18586,-1.74709 -0.71939,0 -1.54154,-0.20554 -2.26093,-0.20554 -0.41109,0 -0.92493,0 -1.33601,-0.20554 -0.92493,-0.41108 -1.74708,-0.92492 -2.46647,-1.74708 l -1.13047,0 c -3.49417,9.96865 -7.50218,18.70408 -10.37973,28.56996 l 0,0 z m 11.20189,-29.18658 1.336,0 c 0.20554,0.41108 0.71939,0.71939 1.33601,0.92493 2.05539,0.71939 4.00802,1.13046 6.06341,1.74708 0.41108,0.71938 0.92492,0.71938 1.54155,0.41108 0,0.20554 0.20554,0.41108 0.20554,0.92493 1.33601,-11.92128 2.26093,-23.94534 2.46647,-35.86661 -3.80248,10.79081 -8.52989,21.27332 -13.46283,31.34474 0.51385,0.30832 0.20554,0.30832 0.51385,0.51385 z m 8.22158,33.1946 c -6.26895,-0.20555 -12.53791,-1.13047 -18.60132,-2.87755 l 0,-0.41107 c -2.46646,10.07141 -3.59694,21.06777 -3.39139,31.65305 7.60495,0 15.20991,0.92492 22.81486,0.71938 -1.13046,-9.4548 -1.336,-19.01238 -0.71939,-28.46719 -0.10272,-0.61662 -0.10272,-0.10272 -0.10272,-0.61662 l 0,0 z m -7.09112,28.98104 c -4.93294,0.20555 -9.86589,0 -15.00436,0 l 0,-0.41108 c 0,14.38776 2.67201,28.26166 7.81049,41.72449 6.68002,-0.92494 13.46283,-2.26094 19.93732,-4.00802 l 0,-1.33601 c -1.54155,-11.61296 -3.18587,-23.53425 -4.52187,-35.14722 -2.67201,-1.336 -5.54956,-0.82216 -8.22158,-0.82216 z m 17.88192,56.215 c -1.54154,-4.21355 -2.87755,-8.52987 -4.00801,-12.94897 -0.20554,-1.33601 -0.41108,-4.00802 -1.74709,-4.72741 -1.336,-0.41107 -4.93294,0.92493 -6.26894,1.13048 -4.21356,0.71937 -8.73543,1.336 -12.94898,2.672 0.71939,2.46648 1.74709,4.21356 2.87755,6.47449 1.54154,3.3914 3.18587,6.98834 4.93294,10.07143 0.71939,1.336 7.60496,15.00437 8.73543,14.59329 0.20554,0 0.41107,-0.20554 0.71939,-0.20554 3.59694,-2.87755 8.32434,-4.7274 12.94898,-4.93295 -1.0277,0 -4.52188,-10.7908 -5.24127,-12.12682 l 0,0 z m -6.47449,16.85423 c -0.41107,0.41108 -1.13046,0.71939 -1.336,1.33601 -0.20554,0.71938 0.20554,1.33601 0.71939,2.05538 8.1188,10.79082 17.26531,20.14286 28.26166,27.74781 2.26093,-3.18585 4.21355,-6.0634 6.47449,-9.14649 -8.32434,-7.60495 -15.72377,-16.34038 -22.19825,-25.58964 -4.11078,0.41107 -8.32435,1.336 -11.92129,3.59693 z m 38.53863,23.0204 c -1.13046,0 -2.672,-1.13046 -3.80248,-0.71939 -0.71939,0.20555 -1.13046,0.92494 -1.54154,1.54155 l -3.3914,4.7274 c -0.41107,0.71939 -0.71939,1.13047 -0.92492,1.74709 -0.41109,2.26093 1.54154,5.85787 2.46646,7.81049 0.92494,2.0554 1.54155,4.00802 2.87755,5.85788 1.33601,1.74708 3.18587,3.18585 5.34403,3.59694 2.26094,0.41107 4.7274,-0.41109 6.47449,-2.0554 1.74709,-1.336 3.18586,-3.3914 4.52186,-5.34402 2.67202,-4.00802 5.65233,-8.32435 8.11881,-12.5379 -2.05539,-2.87755 -3.80248,-5.85787 -5.85787,-8.52988 -2.87755,0.20554 -5.85788,1.54154 -8.52989,2.67201 -1.95262,0.82216 -4.00801,1.43878 -5.7551,1.23323 l 0,0 z m 20.65671,4.52188 c 3.59693,-0.41109 6.47448,-2.87757 9.1465,-5.65234 6.68002,-6.47449 12.33235,-13.87391 17.67638,-21.47886 -1.74709,-0.41108 -3.3914,-0.92493 -5.13849,-1.13046 -0.92493,-0.20554 -2.05539,-0.41109 -2.87755,-0.20554 -0.92493,0.20554 -1.74709,0.92492 -2.46648,1.54154 -7.19386,6.06341 -14.38774,12.33235 -21.2733,18.39577 1.336,2.87755 2.672,6.06341 4.93294,8.52989 l 0,0 z m 22.60932,-36.586 c -1.13047,1.74707 -3.80248,4.7274 -4.00802,6.98832 2.67201,0.20554 5.34403,0.71939 7.81049,1.74709 0.71939,0.20554 1.33601,0.71939 2.0554,0.71939 1.74708,0 4.52187,-5.13849 5.65233,-6.68003 1.74709,-2.67201 3.59694,-5.34402 5.13849,-8.32434 1.54154,-2.87755 3.18585,-5.85787 4.21355,-8.73542 0.20554,-0.71939 3.18586,-8.52988 3.18586,-8.52988 -4.21356,-0.20554 -8.52989,0 -12.74344,0.20553 -0.71939,0 -1.54155,0 -2.26094,0.41108 -1.74707,0.92494 -2.05538,4.93295 -2.672,6.68004 -0.92492,2.46646 -1.74709,5.13848 -2.87755,7.60495 -0.61662,2.56924 -1.95262,5.24125 -3.49417,7.91327 l 0,0 z m 26.00073,-23.02041 0,0.71939 c 2.26093,-12.53791 3.59693,-25.28134 4.52186,-37.922 -6.98834,0 -14.07945,0 -21.06778,0.20553 -0.92494,2.67202 -1.74709,5.13848 -3.18586,7.39942 2.46647,4.21355 3.59694,9.4548 3.80247,14.59329 0.20554,5.13848 -0.41107,10.07143 -0.92492,15.00437 5.65233,-0.92493 11.40743,-1.13046 16.85423,0 l 0,0 z M 255.5928,285.24158 c -0.20553,0.41107 -0.20553,0.92492 -0.20553,1.33601 6.26895,0.71939 12.5379,0.20554 18.80684,0 0.71939,0 1.33601,0 2.0554,-0.41109 0.71939,-0.41107 0.92493,-0.92492 0.41108,-1.336 1.13046,-10.07143 0.71938,-20.34839 -1.13047,-30.21428 -5.65234,3.3914 -11.92128,5.65233 -18.19023,6.68002 -1.33601,8.32434 -2.0554,16.54592 -1.74709,24.87026 m 0.20554,-35.86661 c 0.20554,2.0554 -0.71939,9.66035 2.0554,10.27697 0.92493,0.20553 1.74708,0 2.46647,-0.41108 3.59694,-1.336 7.19387,-2.67201 10.99635,-4.00801 0.92494,-0.41108 2.0554,-0.71939 2.67201,-1.54155 3.59694,-3.59694 -7.39941,-30.72813 -7.39941,-30.72813 -2.67201,1.13047 -5.34403,2.46648 -7.81049,4.00802 -1.33601,0.92492 -2.67202,2.0554 -3.59694,3.59694 -0.92493,1.54153 -0.71939,3.59693 -0.71939,5.65232 0.92493,4.11079 1.13046,8.63266 1.336,13.15452 l 0,0 z m -1.336,-19.11516 0.41108,0 c 2.46647,-2.26092 5.13848,-4.21355 8.32434,-5.85786 0.92492,-0.41109 2.0554,-1.13048 2.67201,-1.74709 2.46648,-2.87755 -2.67201,-10.27697 -4.00801,-12.94898 -1.33602,-2.26093 -2.67202,-4.52186 -4.21357,-6.47449 -0.92492,-1.13046 -4.52186,-4.21355 -4.52186,-5.34401 0,2.3637 2.26094,32.37243 1.33601,32.37243 l 0,0 z m -46.65743,-4.93294 c 12.74344,-26.00072 27.33674,-50.87098 45.52697,-73.27477 -26.41181,15.72377 -61.14796,16.13484 -88.07361,0.92494 15.20991,23.94532 30.00875,46.86296 42.54664,72.34983 z m -8.22156,-38.02477 c 4.00801,8.73541 6.98833,18.6013 9.4548,27.74781 5.34403,-17.88192 13.46283,-35.14723 25.0758,-49.94606 -16.13483,7.60496 -35.45554,8.32434 -52.20699,2.05539 7.60496,5.7551 13.5656,11.61298 17.67639,20.14286 l 0,0 z m 54.26237,117.15741 c -4.93294,-24.87026 -25.28134,-42.3411 -36.99708,-63.92273 -2.87755,-5.34402 -4.21355,-11.92128 -7.60495,-16.85422 -5.13848,-7.60495 -8.1188,2.26093 -10.79082,6.98834 -8.32434,14.59328 -16.85422,29.39212 -25.07579,43.88264 -3.80248,6.47449 -7.39942,13.25728 -9.45481,20.34839 -2.87755,11.61297 1.336,26.00073 5.34402,37.20262 4.52186,12.33236 10.58528,24.25364 18.80685,34.53061 3.39139,4.21355 7.60496,8.1188 12.5379,10.07143 9.86589,3.59692 20.6567,-3.3914 27.7478,-9.66036 17.05977,-15.2099 29.18659,-38.12755 25.58965,-60.73687 0.10272,-0.20553 -0.10272,-1.13046 -0.10272,-1.84985 z m -23.53425,-10.99635 c -0.92493,-4.93294 -3.3914,-9.1465 -5.85788,-13.46283 -8.32434,-14.59329 -16.5459,-29.39212 -24.87024,-43.88264 l -10.79082,16.85422 c 9.4548,18.19023 18.60131,36.2777 28.05611,54.46792 1.54155,3.18586 4.93295,6.98834 8.1188,5.34402 4.62464,-5.34402 6.68003,-12.5379 5.34403,-19.32069 l 0,0 z m -15.10714,17.2653 c -10.99636,-16.34038 -19.01238,-34.32507 -25.79519,-52.72084 -4.00801,9.66035 -10.07142,18.39577 -17.67638,25.58965 6.98834,22.40378 16.85422,43.88265 29.18659,63.92273 1.336,2.26093 2.87755,4.52187 5.34401,4.93294 3.59694,0.71939 6.47449,-2.87755 8.32435,-6.06341 4.21356,-6.98833 8.73542,-14.59328 7.19388,-22.60932 -0.71939,-4.93294 -3.80247,-8.94097 -6.57726,-13.05175 l 0,0 z m -2.46648,-66.28643 c -1.336,-5.13849 -2.672,-10.07143 -4.00801,-15.20991 -1.54154,1.74708 -2.87755,3.59693 -4.52187,5.34402 3.39141,10.79082 10.58528,19.73178 16.54592,29.18658 6.26895,9.45482 11.92128,19.73177 11.92128,30.93368 0,9.86588 -4.21355,19.32069 -7.39941,28.67273 -3.18587,9.35204 -4.93294,19.73177 -11.61297,27.13119 -2.0554,2.26093 -4.21356,4.00801 -5.85788,6.47449 -1.54155,2.46647 -2.26092,5.85787 -0.71938,8.32434 2.26093,3.80247 8.1188,3.3914 12.33235,1.54155 12.5379,-5.13849 21.99271,-16.85423 25.79518,-29.8032 3.80249,-12.94898 2.67202,-27.1312 -1.336,-40.08018 -4.21355,-12.94898 -11.20189,-24.66472 -19.32069,-35.66107 -6.47449,-8.73542 -13.66837,-17.47083 -15.9293,-28.05611 m -11.30466,136.88918 c 3.59694,0.92493 6.68003,-2.87755 6.68003,-6.47449 0,-3.59694 -2.05539,-6.98834 -3.80248,-9.86589 -12.5379,-19.93731 -23.12317,-41.21063 -31.13921,-63.40887 -1.54154,27.13119 6.98834,54.87899 23.73979,76.25509 1.13047,1.54154 2.46648,3.08309 4.52187,3.49416 l 0,0 z m -7.60495,-148.60492 c -4.72742,-19.93732 -12.53791,-39.25802 -23.12317,-56.9344 5.65232,13.46283 4.93294,28.67274 6.0634,43.26603 0.92492,14.59329 4.00801,30.21428 14.59329,40.38848 5.7551,-7.19388 4.4191,-17.67638 2.46648,-26.72011 l 0,0 z m -15.31268,11.71574 c -2.67202,17.2653 -5.65234,34.5306 -8.32434,51.7959 6.0634,-11.20189 11.92127,-22.60932 17.88191,-33.81121 -2.98032,-5.96065 -6.16617,-11.92129 -9.55757,-17.98469 l 0,0 z m 55.39284,-20.65671 c -1.74709,4.93295 -3.59694,9.86589 -4.00801,15.00437 -0.71939,8.52989 2.46646,16.85423 5.65232,24.87026 14.5933,-23.94532 10.79082,-54.26238 18.19023,-81.18803 -7.70772,13.05174 -14.38775,26.92565 -19.83454,41.3134 l 0,0 z m 11.20189,40.08018 0,-15.92931 -9.4548,21.47886 c 4.7274,6.06341 9.4548,12.12683 14.07944,18.19023 -2.26094,-11.61297 -3.80248,-23.32871 -4.7274,-35.14722 m 9.04373,47.27405 c 3.3914,-35.86661 3.80247,-71.93876 0.92492,-107.80539 -8.73541,35.25 -9.1465,72.45262 -0.92492,107.80539 z m -87.14868,-7.60496 c 8.32435,-29.18659 10.07143,-60.12025 4.72741,-89.92345 -2.46647,29.90596 -4.00802,59.91471 -4.72741,89.92345 z m 21.78717,-89.82069 c 3.18586,12.94898 6.26895,26.20626 9.66035,39.25802 2.26093,-2.87755 4.7274,-6.06342 4.52186,-9.66035 0,-2.05539 -1.13046,-4.00802 -2.05538,-5.85787 -4.11079,-8.1188 -8.11882,-15.92929 -12.12683,-23.7398 z m 27.95335,32.26968 c 0.41108,3.18586 3.59693,6.06341 6.47448,5.13849 4.72741,-18.80686 12.33237,-36.99709 22.40379,-53.543 -10.99636,11.61297 -19.93731,25.0758 -26.92565,39.46354 -1.0277,2.87755 -2.3637,5.75512 -1.95262,8.94097 z m 2.98032,9.86589 c 2.05539,7.39941 6.68003,13.8739 11.40743,20.14284 l 1.54155,0 c -2.46648,-7.3994 -4.72741,-14.79883 -7.19388,-21.99269 -1.54155,1.13046 -3.59694,1.84985 -5.7551,1.84985 z m -2.98032,-129.79809 c -1.74708,18.80685 -2.05539,37.92201 -0.20554,56.72885 4.7274,-0.92492 9.86589,-2.87754 11.61296,-7.19386 1.33602,-2.87756 0.92494,-6.26896 0.20555,-9.45482 -2.15816,-13.8739 -6.16617,-27.33673 -11.61297,-40.08017 l 0,0 z m -16.54591,51.28206 c 4.21355,-0.71938 8.52988,0.20554 12.33235,2.0554 -1.33601,-18.80685 0.20554,-37.40816 2.05539,-56.215 -6.0634,7.19386 -8.52988,16.5459 -10.7908,25.58963 -2.46648,9.35205 -4.93295,19.01239 -3.59694,28.56997 l 0,0 z m -9.24928,-1.74707 c 0.92493,-0.92494 1.33601,-2.0554 1.74709,-3.39141 4.52186,-15.20991 8.94095,-30.21428 13.46283,-45.52696 -2.0554,0.41108 -4.00803,-0.41109 -5.13849,-2.26094 -9.1465,17.05977 -18.60131,33.81123 -28.05612,50.87099 4.52186,0.41108 8.73542,0.92493 13.25729,1.13047 1.64431,0.30831 3.59694,0.30831 4.7274,-0.82215 z m 33.70845,-49.53499 c 0.71939,17.67639 4.21355,35.45553 10.58528,52.00145 5.13848,-0.92493 9.86589,-3.80248 13.25728,-7.60495 0.92492,-1.13047 1.74709,-2.46648 2.0554,-3.80248 0.41107,-2.26094 -0.92493,-4.52186 -2.0554,-6.26895 -7.29664,-12.12682 -14.49052,-24.25364 -23.84256,-34.32507 z M 163.51119,204.5674 c -2.87755,1.54154 -4.72741,5.13848 -5.13848,8.52988 -0.41108,3.3914 0.20554,6.68002 0.92492,10.07142 l 1.33601,0 c 0.82216,-6.26895 1.95262,-12.5379 2.87755,-18.6013 z m -13.66836,38.53861 c 0.71939,2.67202 2.46646,4.93295 4.00801,7.19388 1.13047,1.54155 2.87756,3.3914 4.93294,2.67201 -0.20553,-7.81049 -0.71938,-15.92929 1.33602,-23.53424 -3.3914,0 -6.47449,1.74707 -8.52989,4.21355 -2.05539,2.46647 -2.67202,6.26895 -1.74708,9.4548 l 0,0 z m 8.22157,36.07215 c 0.20553,-0.20554 0.20553,-0.71939 0.20553,-1.13046 0.20554,-7.60495 0.71939,-15.20991 0.92493,-22.81486 -2.87755,0.92493 -6.26894,0.92493 -9.14649,-0.20555 -2.46648,3.18586 -4.93295,6.47449 -5.85788,10.58528 -0.92492,4.11079 0,8.52989 3.18586,10.99635 2.46648,2.0554 5.65233,2.46648 8.73542,2.87755 0.82216,0.10272 1.54155,0.10272 1.95263,-0.30831 l 0,0 z m -4.21356,5.13849 c -1.13047,-1.13046 -2.87755,-1.13046 -4.00801,-0.41108 -2.26094,4.00802 -3.80249,8.73542 -3.80249,13.46282 0,4.72742 1.54155,9.45482 4.72742,12.94898 3.18585,3.59694 8.1188,5.65234 12.53789,4.93295 -1.336,-10.27696 -2.46648,-20.86224 -2.87755,-31.13921 -3.90524,0 -2.98032,0.20554 -6.57726,0.20554 l 0,0 z m 3.08309,46.24634 c 0,2.87755 0,5.85788 0.92493,8.52989 1.74709,6.0634 8.52988,10.27697 14.79883,9.66034 -2.46648,-9.66034 -4.93294,-19.52623 -7.39942,-29.18657 0.20554,1.13046 -0.92492,2.26093 -2.05539,2.672 -1.13047,0.41109 -2.46647,0.41109 -3.3914,1.13048 -2.56925,1.13046 -2.87755,4.41909 -2.87755,7.19386 z m 13.25728,24.87026 c 3.80248,11.40744 14.07946,20.34839 26.00074,22.60933 -6.47449,-8.73541 -12.94898,-17.2653 -19.52625,-26.00072 -1.54154,2.05539 -4.00801,3.39139 -6.47449,3.39139 z m 83.86004,-148.39939 c 0.71939,7.39942 0.92494,15.00438 0.71939,22.4038 1.54155,-0.20555 3.18587,-1.33602 3.80249,-2.87755 0.71939,-1.54155 0.92492,-3.18587 0.92492,-4.93295 -0.20553,-4.52187 -1.74708,-8.94096 -4.52186,-12.33236 -0.20555,-0.20554 -0.71939,0 -0.71939,0.20554 -0.41108,-2.05539 0.41108,-0.20554 -0.20555,-2.46648 z m 2.87757,50.87098 c 2.26092,-1.54154 4.21355,-3.39139 5.85786,-5.65232 1.54155,-2.26093 2.67201,-4.93295 2.46648,-7.60496 -0.20554,-2.67201 -1.33601,-5.13849 -3.18587,-7.39941 -1.74708,-2.26094 -3.80247,-3.80248 -6.06341,-5.34403 0.51385,8.52989 0.71939,17.26531 0.92494,26.00072 l 0,0 z m 8.73541,4.00803 c -1.54155,-1.54155 -4.00801,-3.18587 -6.26895,-2.26094 -2.26093,1.13046 -2.46646,3.80248 -2.46646,6.26895 0,4.93294 -0.20555,9.66034 -0.20555,14.59329 3.3914,-1.13046 6.98834,-2.26093 10.27696,-3.3914 1.54155,-0.71938 3.59694,-1.336 4.21357,-2.87755 0.71938,-1.54154 0.20553,-3.3914 -0.71939,-4.93294 -1.0277,-2.87755 -2.77479,-5.34402 -4.83018,-7.39941 z m 2.05539,47.78789 c 2.46648,-3.18586 2.67201,-7.60495 1.54155,-11.40743 -1.13046,-3.80249 -3.59694,-7.19388 -6.06341,-10.58528 -2.26093,0.92493 -5.13848,0 -6.68003,-1.74709 -1.54154,2.87755 -3.3914,6.26896 -3.18585,9.66036 0.20554,2.05539 0.92492,4.00801 1.54154,5.85786 1.74708,5.34403 2.26093,10.99636 1.54155,16.54592 3.18585,-3.3914 8.32434,-4.52187 11.30465,-8.32434 l 0,0 z m -8.1188,28.87827 c 2.0554,-4.21355 2.67201,-9.4548 1.33601,-13.8739 l -7.8105,0 c -2.05539,8.32434 -4.93294,16.34038 -8.32434,23.94533 1.33601,0.71939 3.18586,0.20554 4.52186,-0.41109 4.52187,-1.84985 8.32434,-5.13847 10.27697,-9.66034 z m -18.39577,17.05977 c -2.26093,1.13046 -3.59694,3.18585 -4.7274,5.13848 -4.00802,6.06341 -9.45481,11.20189 -15.9293,14.38775 11.40743,-0.92492 21.99271,-8.32434 26.92565,-18.60131 -0.61661,-2.26093 -4.21355,-2.0554 -6.26895,-0.92492 z m -31.55029,26.92565 -1.336,17.47084 c 4.00802,-4.21355 6.98834,-9.66035 8.52988,-15.20992 -2.46646,-0.10271 -5.24125,-0.92492 -7.19388,-2.26092 l 0,0 z m -6.47449,-1.13047 c -1.74707,2.26093 -4.93294,3.39139 -7.81049,2.87755 2.87755,4.93294 6.06342,9.86588 8.94097,14.79883 -0.71939,-5.85787 -1.13048,-11.61297 -1.13048,-17.67638 l 0,0 z m 120.75436,-151.37971 -8.32434,-2.05539 m -213.7609,-30.62536 -8.940951,2.05539"
     style="fill:#000000;fill-opacity:1;stroke:none;stroke-opacity:1"
     inkscape:connector-curvature="0" /></g></svg>